<?xml version="1.0" encoding="utf-8"?>
<!-- Generator: Adobe Illustrator 25.0.0, SVG Export Plug-In . SVG Version: 6.00 Build 0)  -->
<svg version="1.1" id="Layer_1" xmlns="http://www.w3.org/2000/svg" xmlns:xlink="http://www.w3.org/1999/xlink" x="0px" y="0px"
	 viewBox="0 0 300 105" style="enable-background:new 0 0 300 105;" xml:space="preserve">
<style type="text/css">
	.st0{fill:#003447;}
	.st1{fill:#006684;}
	.st2{fill:#8CB7C9;}
</style>
<path class="st0" d="M3.7,42.3c2.3,2.1,6.8,3.7,9,5.8c1.2,1.2,1.3,1.7,1.3,5c0,5.7-0.7,6.3-3.1,6.3c-2.3,0-3-0.8-3-5.9
	c0-1.1,0-2,0.1-2.7H1.7c-0.2,1.1-0.4,2.8-0.4,4.7c0,2.9,0.2,5,0.8,6.7c4,0.1,10,0.3,17.5,0.4c0.9-2.1,1.2-5.1,1.2-9.4
	c0-8.2-0.7-9.4-3.6-11.4c-1.9-1.3-6-3-7.9-4.7C8.1,36.1,8,35.7,8,31.8c0-4.4,0.6-5,2.8-5c2.6,0,3,1.4,3,4.9c0,1.5-0.1,2.2-0.1,2.8
	h6.2c0.3-1.1,0.4-2.5,0.4-5c0-7.4-1.8-10-9.4-10c-7.3,0-9.6,2.5-9.6,11.1C1.3,39.1,1.7,40.5,3.7,42.3z"/>
<g>
	<path class="st1" d="M225.1,40.1V20.5h5c3,0,3.9,1.3,3.9,5.3c0,3-0.4,3.6-1.2,4.1v0.2c1.1,0.6,1.5,0.8,1.5,4.7c0,4-0.9,5.3-3.8,5.3
		H225.1z M229.6,28.9c0.9,0,1.1-0.5,1.1-2.7c0-2.5-0.4-2.6-1.2-2.6h-1.3v5.3H229.6z M229.7,37c0.9,0,1.2-0.4,1.2-2.6
		c0-2.5-0.3-3-1.2-3h-1.5V37H229.7z"/>
	<path class="st1" d="M241.8,40.1c-0.2-0.4-0.2-0.7-0.4-2.4c-0.1-1-0.2-2.4-0.4-3.9c-0.2-1.4-0.4-1.7-1-1.7h-0.9v8h-3.2V20.5h5.1
		c3,0,3.8,1.5,3.8,5.3c0,4.3-0.7,4.6-1.5,5v0.2c0.5,0.4,0.8,1,1,2c0.3,1.5,0.3,2.8,0.5,4.7c0.2,1.5,0.2,1.9,0.4,2.3v0.1H241.8z
		 M240.2,29.3c0.8,0,1.3-0.1,1.3-3.1c0-2.4-0.5-2.5-1.2-2.5h-1.2v5.6H240.2z"/>
	<path class="st1" d="M246.9,40.1V20.5h7.4v3.2H250v4.8h4.1v3.1H250v5.1h4.2v3.4H246.9z"/>
	<path class="st1" d="M265.1,40.1c-1.2-11.5-1.3-12.4-1.3-13.3h-0.2c0,0.9-0.1,1.8-1.4,13.3h-4.6l-1.6-19.6h3.2
		c0.8,13.2,0.9,14,1,14.9h0.2c0-0.9,0.2-1.7,1.7-14.9h3.2c1.6,13.2,1.7,14,1.7,14.9h0.3c0-0.9,0.1-1.7,1-14.9h3l-1.6,19.6H265.1z"/>
	<path class="st1" d="M273,40.1V20.5h3.3v19.6H273z"/>
	<path class="st1" d="M285.9,40.1L281.6,28h-0.1v12.1h-2.9V20.5h3.3l2.7,8.4h0.1v-8.4h2.9v19.6H285.9z"/>
	<path class="st1" d="M293.6,32v-3.1h4.8c0,0.6,0,1.9,0,3.5c0,4.1-0.3,5.4-0.8,6.4c-0.6,1.2-1.6,1.6-3.7,1.6c-2.2,0-3.1-0.4-3.7-1.6
		c-0.6-1.2-0.8-2.4-0.8-8.7c0-6.1,0.2-7.2,0.8-8.3c0.6-1.2,1.6-1.6,3.7-1.6c2.2,0,3,0.4,3.6,1.5c0.5,0.9,0.7,2.2,0.7,3.9
		c0,0.4,0,0.5,0,0.9h-3c0-0.2,0-0.3,0-0.9c0-0.5-0.1-1.3-0.2-1.7c-0.1-0.4-0.5-0.6-1.1-0.6c-0.7,0-1,0.2-1.1,0.7
		c-0.2,0.6-0.3,1.4-0.3,6.1c0,4.9,0.1,5.6,0.3,6.2c0.2,0.5,0.5,0.7,1.2,0.7c0.8,0,1.1-0.2,1.2-0.8c0.2-0.6,0.2-2,0.2-3
		c0-0.6,0-1,0-1.3H293.6z"/>
	<path class="st1" d="M233,56.8c0.1,0.4,0.1,0.9,0.1,1.7c0,3.9-0.7,5.8-4.1,5.8c-2.1,0-3.1-0.4-3.6-1.5c-0.5-1.1-0.8-2.5-0.8-8.3
		c0-6.2,0.3-7.1,0.8-8c0.6-1.1,1.4-1.5,3.5-1.5c1.9,0,2.8,0.3,3.3,1.1c0.6,0.8,0.9,2.4,0.9,4.5c0,0.8,0,1.1-0.1,1.5h-2.9
		c0-0.3,0-0.6,0-1.3c0-1.1-0.1-2-0.3-2.4c-0.1-0.3-0.3-0.5-1-0.5c-0.6,0-0.9,0.2-1,0.6c-0.2,0.6-0.3,1.4-0.3,5.9
		c0,4.6,0.1,5.4,0.3,6c0.1,0.4,0.4,0.6,1.1,0.6c0.6,0,0.9-0.2,1-0.7c0.1-0.7,0.2-1.4,0.2-2.8c0-0.3,0-0.5,0-0.7H233z"/>
	<path class="st1" d="M239.1,64.3c-2.1,0-3-0.4-3.5-1.5c-0.5-1.1-0.8-2.3-0.8-8.2c0-5.9,0.2-7,0.8-8.2c0.5-1.1,1.5-1.5,3.5-1.5
		c2,0,3,0.4,3.5,1.5c0.5,1.2,0.8,2.3,0.8,8.2c0,5.9-0.2,7-0.8,8.2C242.1,64,241.2,64.3,239.1,64.3z M240.4,54.5
		c0-4.7-0.1-5.3-0.2-5.9c-0.1-0.5-0.4-0.6-1-0.6c-0.6,0-0.9,0.2-1,0.6c-0.2,0.6-0.3,1.3-0.3,6c0,4.6,0.1,5.3,0.3,5.9
		c0.1,0.4,0.4,0.6,1,0.6c0.6,0,0.9-0.2,1-0.6C240.4,59.8,240.4,59.2,240.4,54.5z"/>
	<path class="st1" d="M255.1,64V51H255c-0.1,0.6-0.2,1.4-0.4,2L252.3,64h-1.4l-2.4-11c-0.1-0.6-0.3-1.4-0.3-2H248v13h-2.8V45.2h4.5
		L251,52c0.2,1.2,0.3,2,0.4,2.8h0.2c0.1-0.8,0.2-1.6,0.5-2.8l1.3-6.8h4.5V64H255.1z"/>
	<path class="st1" d="M260,64V45.2h4.8c2.8,0,3.6,1.5,3.6,6.3c0,4.8-0.7,6.6-3.6,6.6H263V64H260z M264.2,55.1c0.7,0,1.1-0.8,1.1-3.6
		c0-2.7-0.4-3.2-1.1-3.2H263v6.8H264.2z"/>
	<path class="st1" d="M274.4,64l-0.4-4.7h-1.9l-0.4,4.7h-3l1.9-18.8h5.1l1.8,18.8H274.4z M273.2,48.3H273l-0.7,8h1.7L273.2,48.3z"/>
	<path class="st1" d="M286.3,64l-4.2-11.5H282V64h-2.8V45.2h3.2l2.6,8h0.1v-8h2.8V64H286.3z"/>
	<path class="st1" d="M292.3,64v-7.5l-3.1-11.1v-0.1h3.1c1.2,5.3,1.4,6,1.4,6.6h0.2c0.1-0.6,0.2-1.4,1.5-6.6h3v0.1l-2.9,11.1V64
		H292.3z"/>
</g>
<path class="st1" d="M168.5,66.1c0,0-14.1,6.3-38,6.8c0,0-15.2,2-5.8-1.3c0,0,24.6-4.5,30.3-4.7c0,0-118.2,4.5-146.6,1.5
	c0,0-1.2-1.6,0-1.5c0,0,63.2,2,121.4,0c0,0,80.6-4,83.8-4.3c-0.2-0.4-0.5-0.7-0.5-0.7c-3.4,0-83.9,3.7-104.8,3.9
	C87.4,65.8,4.1,64.8,4.3,65.3c0.4,1.2,2.5,3.9,2.5,3.9c1.7,2.4,9.9,2.9,9.9,2.9c7.4,0.5,12.1,3.2,12.1,3.2l0.6,0.3l150.9,0.5
	c2.9-0.9,32.3-12.1,32.3-12.1c0.4-0.2,0.6-0.4,0.7-0.6C207.5,63.7,173.9,65.3,168.5,66.1z"/>
<path class="st0" d="M31.1,62.8V46.4h6.4v16.5c2.4,0,5,0,7.6,0.1V20.4h-7.6v18.8h-6.4V20.4h-7.6v42.3C25.9,62.8,28.5,62.8,31.1,62.8
	z"/>
<path class="st0" d="M55.9,63V20.4h-7.6V63C50.8,63,53.3,63,55.9,63z"/>
<path class="st0" d="M66.6,63V51.9h4.2c7,0,8.8-4.2,8.8-16c0-11.7-1.9-15.5-8.8-15.5H59.1V63C61.5,63,64,63,66.6,63z M66.6,27.9h2.7
	c1.9,0,2.8,1.3,2.8,7.8c0,7-0.8,8.8-2.6,8.8h-2.9V27.9z"/>
<path class="st0" d="M95.6,62.8c2.6-23.7,2.8-25.7,2.8-27.7h0.5c0.1,2,0.3,4,2.8,27.6c3.7-0.1,7.4-0.1,11.3-0.2l3.5-42.1h-7.1
	c-2,30.7-2.2,32.7-2.2,34.7h-0.6c0-2.1-0.3-4-4-34.7h-7.4c-3.6,30.7-4,32.6-4.1,34.7h-0.5c-0.1-2.1-0.3-4-2.2-34.7h-7.5l3.5,42.5
	C88,62.9,91.7,62.9,95.6,62.8z"/>
<path class="st0" d="M125.9,62.2V47.6h2c1.4,0,1.9,0.5,2.4,3.9c0.5,3.5,0.6,6.7,0.8,9c0.1,0.6,0.1,1.1,0.2,1.6
	c2.6-0.1,5.2-0.2,7.8-0.2c0-0.4-0.1-0.8-0.1-1.2c-0.5-4.5-0.6-7.6-1.3-11.1c-0.5-2.4-1-3.9-2.2-4.8v-0.4c2-1,3.6-1.6,3.6-11.7
	c0-9-1.8-12.3-8.8-12.3h-11.8v42C120.9,62.4,123.4,62.3,125.9,62.2z M125.9,27.8h2.9c1.5,0,2.7,0.1,2.7,5.8c0,7.2-1.1,7.3-3.1,7.3
	h-2.5V27.8z"/>
<path class="st0" d="M149.3,61.5V20.4h-7.6v41.4C144.2,61.7,146.7,61.6,149.3,61.5z"/>
<path class="st0" d="M172.9,60.5c0.5-2.3,0.8-5.7,0.8-12.2c0-3.9-0.1-6.7-0.1-8.2h-11.3v7.2h4.4c0.1,0.7,0.1,1.6,0.1,3.1
	c0,2.2-0.2,5.5-0.5,7c-0.4,1.4-1,1.8-2.8,1.8c-1.7,0-2.4-0.4-2.8-1.7c-0.4-1.5-0.7-3-0.7-14.6c0-10.9,0.3-12.8,0.7-14.2
	c0.4-1.3,1-1.7,2.6-1.7c1.6,0,2.4,0.4,2.7,1.5c0.2,0.9,0.5,2.7,0.5,3.9c0,1.2,0,1.5-0.1,2h7c0.1-0.7,0.1-1.1,0.1-2
	c0-4.2-0.5-7-1.6-9.2c-1.4-2.6-3.3-3.6-8.5-3.6c-5,0-7.2,0.9-8.6,3.8c-1.3,2.7-1.9,5.3-1.9,19.5c0,11.6,0.3,15.8,1.1,18.4
	C160.2,61.1,166.5,60.8,172.9,60.5z"/>
<path class="st0" d="M184.5,59.9V46.4h6.4v13.1c2.5-0.2,5-0.3,7.6-0.5V20.4h-7.6v18.8h-6.4V20.4h-7.6v39.9
	C179.4,60.1,181.9,60,184.5,59.9z"/>
<path class="st0" d="M206.3,58.5c2.5-0.2,5-0.4,7.4-0.5V28h6.4v-7.6h-20.3V28h6.5V58.5z"/>
<path class="st0" d="M38.2,76.9c2.1,0.7,3.1,2.1,4,4.1c1,3,0.9,6.5,0.9,6.5C42.9,102.6,61,102.3,61,102.3c26.2,1.3,40.3-1.3,48.1-4
	c3.2-1.2,32.4-11.2,32.4-11.2c4.4-1.2,25-7.1,33.8-9.6L38.2,76.9z"/>
<g>
	<path class="st2" d="M3.7,12.6V2h1.7v8.7h2.1v1.8H3.7z"/>
	<path class="st2" d="M13.7,2h1.7v7.5c0,1.6-0.1,2-0.4,2.5c-0.3,0.6-0.9,0.8-2,0.8c-1.2,0-1.7-0.2-2-0.8c-0.3-0.5-0.4-1-0.4-2.5V2
		h1.8v7.5c0,0.8,0,1,0.1,1.2c0.1,0.2,0.2,0.2,0.6,0.2c0.4,0,0.5,0,0.6-0.2c0.1-0.2,0.1-0.4,0.1-1.2V2z"/>
	<path class="st2" d="M22.7,12.6l-2.3-6.5h-0.1v6.5h-1.6V2h1.8L22,6.6h0.1V2h1.6v10.6H22.7z"/>
	<path class="st2" d="M27,12.6V2h4v1.7h-2.3v2.6H31v1.7h-2.2v2.7H31v1.8H27z"/>
	<path class="st2" d="M38.4,12.6L36,6.1h-0.1v6.5h-1.6V2h1.8l1.4,4.5h0.1V2h1.6v10.6H38.4z"/>
	<path class="st2" d="M42.7,12.6V2h2.7c1.6,0,2.1,0.7,2.1,2.9c0,1.6-0.2,1.9-0.7,2.2v0.1c0.6,0.3,0.8,0.4,0.8,2.6
		c0,2.2-0.5,2.9-2,2.9H42.7z M45.1,6.6c0.5,0,0.6-0.3,0.6-1.5c0-1.4-0.2-1.4-0.6-1.4h-0.7v2.9H45.1z M45.2,11c0.5,0,0.6-0.2,0.6-1.4
		c0-1.4-0.2-1.6-0.6-1.6h-0.8v3H45.2z"/>
	<path class="st2" d="M53.8,2h1.7v7.5c0,1.6-0.1,2-0.4,2.5c-0.3,0.6-0.9,0.8-2,0.8c-1.2,0-1.7-0.2-2-0.8c-0.3-0.5-0.4-1-0.4-2.5V2
		h1.8v7.5c0,0.8,0,1,0.1,1.2c0.1,0.2,0.2,0.2,0.6,0.2c0.4,0,0.5,0,0.6-0.2c0.1-0.2,0.1-0.4,0.1-1.2V2z"/>
	<path class="st2" d="M62,12.6c-0.1-0.2-0.1-0.4-0.2-1.3c-0.1-0.5-0.1-1.3-0.2-2.1c-0.1-0.8-0.2-0.9-0.5-0.9h-0.5v4.3h-1.7V2h2.7
		c1.6,0,2,0.8,2,2.9c0,2.3-0.4,2.5-0.8,2.7v0.1c0.3,0.2,0.4,0.5,0.5,1.1c0.2,0.8,0.2,1.5,0.3,2.6c0.1,0.8,0.1,1,0.2,1.2v0.1H62z
		 M61.2,6.8c0.4,0,0.7,0,0.7-1.7c0-1.3-0.3-1.3-0.6-1.3h-0.7v3H61.2z"/>
	<path class="st2" d="M69,8.3V6.6h2.6c0,0.3,0,1,0,1.9c0,2.2-0.2,2.9-0.4,3.5c-0.3,0.7-0.9,0.9-2,0.9c-1.2,0-1.7-0.2-2-0.9
		c-0.3-0.6-0.4-1.3-0.4-4.7c0-3.3,0.1-3.9,0.4-4.5c0.3-0.7,0.9-0.9,2-0.9c1.2,0,1.6,0.2,2,0.8c0.3,0.5,0.4,1.2,0.4,2.1
		c0,0.2,0,0.3,0,0.5h-1.6c0-0.1,0-0.2,0-0.5c0-0.3-0.1-0.7-0.1-0.9c-0.1-0.2-0.3-0.3-0.6-0.3c-0.4,0-0.5,0.1-0.6,0.4
		c-0.1,0.3-0.2,0.7-0.2,3.3c0,2.7,0.1,3,0.2,3.4c0.1,0.3,0.3,0.4,0.6,0.4c0.4,0,0.6-0.1,0.7-0.4C69.9,10.2,70,9.5,70,9
		c0-0.3,0-0.6,0-0.7H69z"/>
	<path class="st2" d="M84.4,8.6c0,0.3,0,0.5,0,1c0,2.2-0.4,3.3-2.3,3.3c-1.2,0-1.7-0.2-2.1-0.9c-0.3-0.6-0.4-1.4-0.4-4.7
		c0-3.5,0.2-4,0.4-4.5c0.3-0.6,0.8-0.9,2-0.9c1.1,0,1.6,0.2,1.9,0.6c0.3,0.5,0.5,1.3,0.5,2.6c0,0.4,0,0.6,0,0.9h-1.6
		c0-0.2,0-0.4,0-0.7c0-0.6-0.1-1.1-0.2-1.3c-0.1-0.2-0.2-0.3-0.5-0.3c-0.4,0-0.5,0.1-0.6,0.3c-0.1,0.4-0.2,0.8-0.2,3.3
		c0,2.6,0,3,0.2,3.4c0.1,0.3,0.2,0.3,0.6,0.3c0.3,0,0.5-0.1,0.5-0.4c0.1-0.4,0.1-0.8,0.1-1.6c0-0.2,0-0.3,0-0.4H84.4z"/>
	<path class="st2" d="M90.9,12.6c-0.1-0.2-0.1-0.4-0.2-1.3c-0.1-0.5-0.1-1.3-0.2-2.1c-0.1-0.8-0.2-0.9-0.5-0.9h-0.5v4.3h-1.7V2h2.7
		c1.6,0,2,0.8,2,2.9c0,2.3-0.4,2.5-0.8,2.7v0.1c0.3,0.2,0.4,0.5,0.5,1.1c0.2,0.8,0.2,1.5,0.3,2.6c0.1,0.8,0.1,1,0.2,1.2v0.1H90.9z
		 M90.1,6.8c0.4,0,0.7,0,0.7-1.7c0-1.3-0.3-1.3-0.6-1.3h-0.7v3H90.1z"/>
	<path class="st2" d="M98.9,12.6L98.7,10h-1.1l-0.2,2.7h-1.7L96.7,2h2.9l1,10.6H98.9z M98.2,3.8h-0.1l-0.4,4.5h1L98.2,3.8z"/>
	<path class="st2" d="M103.8,12.6V2h3.9v1.7h-2.2v2.8h2.2v1.7h-2.2v4.4H103.8z"/>
	<path class="st2" d="M112.2,12.6V3.8h-1.5V2h4.7v1.7h-1.5v8.8H112.2z"/>
	<path class="st2" d="M118.5,12.6V2h4v1.7h-2.3v2.6h2.2v1.7h-2.2v2.7h2.2v1.8H118.5z"/>
	<path class="st2" d="M125.8,12.6V2h2.5c1.1,0,1.7,0.2,2,0.8c0.3,0.6,0.4,1.2,0.4,4.4c0,3.3-0.1,3.9-0.4,4.5c-0.3,0.6-0.8,0.8-2,0.8
		H125.8z M128.3,10.8c0.4,0,0.5-0.1,0.6-0.3c0.1-0.3,0.1-0.7,0.1-3.2c0-2.4,0-2.9-0.1-3.2c-0.1-0.2-0.2-0.3-0.6-0.3h-0.7v7H128.3z"
		/>
</g>
</svg>
